<svg width="900" height="240" viewBox="0 0 900 240" fill="none" xmlns="http://www.w3.org/2000/svg" role="img" aria-label="alias-manager logo">
  <defs>
    <linearGradient id="bg" x1="0" y1="0" x2="1" y2="1">
      <stop offset="0%" stop-color="#0B1B26"/>
      <stop offset="100%" stop-color="#0F2A3A"/>
    </linearGradient>
    <linearGradient id="accent" x1="0" y1="0" x2="1" y2="0">
      <stop offset="0%" stop-color="#31D0AA"/>
      <stop offset="100%" stop-color="#5AE0FF"/>
    </linearGradient>
    <filter id="soft" x="-50%" y="-50%" width="200%" height="200%">
      <feGaussianBlur stdDeviation="10"/>
    </filter>
  </defs>

  <rect x="0" y="0" width="900" height="240" rx="28" fill="url(#bg)"/>

  <circle cx="140" cy="120" r="72" fill="#1A3A4D"/>
  <circle cx="140" cy="120" r="72" fill="url(#accent)" opacity="0.15" filter="url(#soft)"/>

  <path d="M96 104c0-10 8-18 18-18h28c10 0 18 8 18 18v4h8c10 0 18 8 18 18v34c0 10-8 18-18 18H114c-10 0-18-8-18-18v-56z" fill="#163040" stroke="#2E6C7E" stroke-width="2"/>
  <path d="M114 88h44c6 0 10 4 10 10v6H104v-6c0-6 4-10 10-10z" fill="#1C4458"/>

  <path d="M228 92c10 10 10 46 0 56" stroke="#5AE0FF" stroke-width="6" stroke-linecap="round"/>
  <path d="M256 92c10 10 10 46 0 56" stroke="#31D0AA" stroke-width="6" stroke-linecap="round"/>

  <text x="300" y="125" fill="#EAF7FF" font-family="'SFMono-Regular', Menlo, Monaco, Consolas, 'Liberation Mono', 'Courier New', monospace" font-size="42" font-weight="700">alias-manager</text>
  <text x="300" y="165" fill="#8CB7C8" font-family="'SFMono-Regular', Menlo, Monaco, Consolas, 'Liberation Mono', 'Courier New', monospace" font-size="20">folder-aware aliases for your shell</text>
</svg>
